<svg xmlns="http://www.w3.org/2000/svg" width="100.925" height="88.839" viewBox="0 0 100.925 88.839">
  <path id="Louisiana_map" d="M602.5,472.8l-1.2-1.8.3-1.3-4.8-6.8.9-4.6,1-1.4.1-1.4-36,2,1.7-11.9,2.4-4.8,6-8.4-1.8-2.5h2v-3.3l-2.4-2.5.5-1.7-1.2-1-1.6-7.1.6-1.4-52.3,1.3.5,19.9.7,3.4,2.6,2.8.7,5.4,3.8,4.6.8,4.3h1l-.1,7.3-3.3,6.4,1.3,2.3-1.3,1.5.7,3-.1,4.3-2.2,3.5-.1.8-1.7,1.2,1,1.8,1.2,1.1,1.6-1.3,5.3-.9,6.1-.1,9.6,3.8,8,1,1.5-1.4,1.8-.2,4.8,2.2,1.6-.4,1.1-1.5-4.2-1.8-2.2,1-1.1-.2-1.4-2,3.3-2.2,1.6-.1v1.7l1.5-.1,3.4-.3.4,2.3,1.1.4.6,1.9,4.8,1,1.7,1.6v.7h-1.2l-1.5,1.7,1.7,1.2,5.4,1,2.7,2.8,4.4-1-3.7.2-.1-.6,2.8-.7.2-1.8,1.2-.3V494l1.1.1v1.6l2.5.1.8-1.9.9.3.2,2.5,1.2.2-1.8,2,2.6-.9,2-1.1,2.9-3.3h-.7l-1.3,1.2-.4-.1-.5-.8.9-1.2v-2.3l1.1-.8.7.7,1-.8,1-.1.6,1.3-.6,1.9h2.4l5.1,1.7.5,1.3,1.6,1.4,2.8.1,1.3.7,1.8-1,.9-1.7v-1.7h-1.4L613,492l-1.1-1.1-3.2-.9-2.6.2-4.2-2.4v-2.3l1.3-1,2.4.6-3.1-1.6.2-.8h3.6l2.6-3.5-2.6-1.8.8-1.5-1.2-.8h-.8l-2,2.1v2.1l-.6.7-1.1-.1-1.6-1.4h-1.3V477l.6-.7.8.7,1.7-1.6.7-1.6.8-.3Zm-10.3-2.7,1.9,1,.8,1.1,2.5.1,1.5.8.2,1.4-.4.6-.9-1.5-1.4,1.2-.9,1.4-2.8.8-1.6.1-3.7-1,.1-1.7,2-2,1.1-2.4Zm-4.7,1.2v1.1l-1.8,2h-1.2v-2.2l1.6-1.5Z" transform="translate(-515.675 -411.862)" fill="#fff" stroke="#b22234" stroke-width="2"/>
</svg>
