<svg xmlns="http://www.w3.org/2000/svg" width="213.035" height="75.077" viewBox="0 0 213.035 75.077">
  <path id="Tennesse_map" d="M636.92,385.512l64.816-5.673,32.479-4.113.142-6.95,1.986-1.844,2.127.142,1.844-1.276,1.135-5.815,6.524-4.255,5.106-.709,4.539-3.688.709-1.7,6.666-3.4.851-4.822,5.673-4.68,1.135.284.142,2.127,1.135,1.135,2.127-1.7.993-2.978,4.964-3.546,3.688,1.56,3.4-7.375,1.986-1.7,2.127.142v-7.375l.425-.993-6.524.709-.284,1.418-40.989,4.68-7.942,1.986-29.075,1.986-7.375,1.135-24.678,1.418-3.688,1.135L641.034,333.6l-.993-.851h-5.248l1.7,4.539-.851,1.276L602.6,340.694l-1.135,1.418-1.135-.993H598.91v1.844l.851,1.418-.142,1.418-1.986.709,1.986,2.127-1.135.993-2.411-.284.851,1.418,1.7,1.56v.993l-1.7.709-1.418,2.837.142.851,1.986,1.418-.567.993h-2.127v.709l1.276,1.276.142,1.135-1.986.284-.709,1.135-2.269.284-1.276,1.276.851,1.276,1.56-.142.709,1.276-2.269,1.844.567,2.127-2.837-.851-.142.993.567,1.56-.425,1.986-1.844-1.135-1.135,1.135,1.56.142.142,2.127-.851,1.418,1.56,1.276-.425,2.127,1.135.993-.993,1.418-1.7-.709-1.276,3.12-2.269.993Z" transform="translate(-582.199 -315.121)" fill="#fff" stroke="#b22234" stroke-width="2"/>
</svg>
