<svg xmlns="http://www.w3.org/2000/svg" width="114.695" height="112.661" viewBox="0 0 114.695 112.661">
  <path id="Texas_map" d="M282.3,377.174l.138-1.382,15.848,1.659,14.65,1.2,3.64-45.748h.369l24.233,1.474-.645,19.672,1.244.6,1.152,1.382.691.138.507-.461.553.184.645.461.507-.691,1.06.783.23,1.336.553.323,1.06-.046,1.612.875.921-.046.645-.184,1.06,1.014.921-1.06,1.612.507.875,1.382,1.06-.046-.322.967,1.06.507,1.382-1.2,1.2.783.6-.23.046.691.783.553,1.06-1.152.553.323-.138.921.461.829.553-.369,1.152-1.935.829.921.921.23.967-.322.921.829.553-.046.6.553,1.659-.415.276-.783,1.7-.138.737.322,2.3-1.152.276.691,2.35-.138.23-.737,1.014.415,2.119,1.751,2.948.875,1.2,1.06,1.29-.6,1.474.369.092,5.482.23,9.168.322,1.566,1.2,1.29.322,2.488,1.751,2.119.369,1.981h.461l-.046,3.363-1.52,2.948.6,1.06-.6.691.323,1.382-.046,1.981-1.014,1.612-.046.369-.783.553.461.829.553.507-1.612.138-3.87,1.8-1.612.645-.829.829-.322-.23.967-1.06.829-.323.23-.415-1.336-.046-.322-.369.369-.921-.415-.829h-.276l-1.106.6-.875,1.2.138.783,1.52,1.566.6.138v.369l-1.06.737-2.257,1.843-1.843,1.8-1.474.645-2.3,1.382-1.7.921-2.073.875-1.889,1.152,1.474-1.382V415.6l.276-.369-.092-.829-.691-.046-.507.691-1.2.6-.829-.553-.138-.783H367.9l.369,1.014.645.323.553.415.829.737-.323.369-1.8.783-.783.046-.553-.553-.23.967.23.507-1.244.921-.691.092-.369.323-.184.783-.829,1.52-.737.323-.737-.276-.829.507.138.645.6.369.461.369-.829,1.612-.138,1.29-.461.783-.645.461-1.336.184.829.276.875-.276-.184,1.474-.507-.046.092.553.138.645-.6.415v1.428l.737.645.276,1.428-.184,1.014-.461.184.184.691.507.184.369.783v1.2l.507.967,1.014,1.2-.046.323-1.014-.092-.737.645.092.645-.415-.138-.645-.092-1.566-1.7-1.06-.276h-3.271l-1.29-.369-1.659-1.382-.783-.461-.967.046-1.474-1.2-2.488-.737v-.6l-.645-.829-.415-2.165-.507-.783-.783-.645v-.737l-.645-.276.276-1.2-.138-1.014-.6-.645.322-1.382-.369-1.474-.783-.645h-.507l-1.843-1.612.046-.875-.369-.783-.369-.092-.415-1.106-.921-.737-1.336-1.152-.092-.967-.461-.323.092-.737.23-.323-.645-.691.046-.323-.921-1.014.046-.967-1.244-2.257-.046-.783-.829-1.428-2.35-2.211v-.507l-1.52-.783-.046-.829-.553-.184v-.323l-.369-.092-.967-1.29h-.369l-.322-.276-.6.507h-1.014l-1.2-.507h-2.119l-1.935-.967-.6.875-1.014-.276-1.52.553-.783,1.29-.921,1.474-.507,2.027-.645.553-.507.046-.415.737-.6.276-.046.829-1.336.046-.829-.691h-.461l-.921-1.336-1.659-.23-.783-1.06-.6-.092-.967-.369-1.566-1.566.092-.369-.737-.553-.461-.046-1.566-1.428-.046-.921-1.06-1.843.092-.737-.323-.6.369-.691-.046-1.106-1.2-1.889-.276-1.935-.737-.737v-.461l-.553-.092-.323-.507-1.106-.783-.415-.046-.875-.737v-.507l-1.336-.829-.276-.967-1.2-1.06-1.474-2.027-1.382-.6-.967-.829.092-.553-.6-.645-.783-1.7-1.106-.461Zm80.577,63.715.369.046-.276-2.211-1.612-5.667-.092-3.732,2.257-4.837,2.81-3.778,3.317-2.35v-.323h-.369l-1.2.461-1.659,1.06-.322.691-3.778,5.344-1.29,3.64v4.054l1.659,5.528Z" transform="translate(-281.261 -331.9)" fill="#fff" stroke="#b22234" stroke-width="2"/>
</svg>
